/vscmnt/brussel_pixiu_data/_data_brussel/112/vsc11236/PredSimResults/SUBJ09opt3D/weighted-trackIG/worker_04.mot
version=1
nRows=8
nColumns=50
inDegrees=yes
endheader
                time	         pelvis_tilt	         pelvis_list	     pelvis_rotation	           pelvis_tx	           pelvis_ty	           pelvis_tz	       hip_flexion_r	     hip_adduction_r	      hip_rotation_r	        knee_angle_r	       ankle_angle_r	         mtp_angle_r	       hip_flexion_l	     hip_adduction_l	      hip_rotation_l	        knee_angle_l	       ankle_angle_l	         mtp_angle_l	    lumbar_extension	      lumbar_bending	     lumbar_rotation	 ercspn_r/activation	 intobl_r/activation	 extobl_r/activation	    abd_r/activation	    add_r/activation	hamstrings_r/activation	bifemsh_r/activation	glut_max_r/activation	iliopsoas_r/activation	rect_fem_r/activation	  vasti_r/activation	gastroc_r/activation	 soleus_r/activation	tib_ant_r/activation	 ercspn_l/activation	 intobl_l/activation	 extobl_l/activation	    abd_l/activation	    add_l/activation	hamstrings_l/activation	bifemsh_l/activation	glut_max_l/activation	iliopsoas_l/activation	rect_fem_l/activation	  vasti_l/activation	gastroc_l/activation	 soleus_l/activation	tib_ant_l/activation	
          1.99399968	         -4.06223204	          0.73222887	         -6.92795937	          2.23327964	          0.99136712	          0.00059567	        -12.82691651	         -1.88940801	         -5.33528129	        -10.73027601	          4.79202266	         36.60102178	         27.62010097	         -0.80709128	         -7.09127533	         -4.93402408	          3.30908476	          0.24062401	        -13.23493741	          1.93440361	          8.90825758	          0.02238005	          0.00999999	          0.00999999	          0.03618577	          0.00999999	          0.02629771	          0.28796731	          0.01258534	          0.11079719	          0.00999999	          0.00999999	          0.33342701	          0.24468724	          0.01221554	          0.02759789	          0.16450278	          0.03645570	          0.00999999	          0.29854316	          0.05227023	          0.08123116	          0.07447245	          0.12150698	          0.01735588	          0.01026560	          0.01337305	          0.01492194	          0.31931435	
          2.00729301	         -4.12545251	          0.85741668	         -6.92303775	          2.25315340	          0.98920532	         -0.00026397	        -13.37479228	         -2.23685126	         -5.77576030	        -11.61715270	          3.74528925	         38.26553364	         27.54388319	         -0.60571197	         -7.24734026	         -6.67092947	          2.86880079	          0.20703312	        -12.66465111	          1.41453137	          9.04620673	          0.01836214	          0.00999999	          0.00999999	          0.02962270	          0.00999999	          0.03173867	          0.24609781	          0.01030272	          0.11233117	          0.00999999	          0.00999999	          0.30430109	          0.22179569	          0.00999999	          0.02259242	          0.13466664	          0.02984367	          0.05567825	          0.24439590	          0.06251336	          0.06649813	          0.10987248	          0.09946906	          0.01420802	          0.00999999	          0.01221554	          0.01221554	          0.35605639	
          2.02058634	         -4.16860188	          1.01694748	         -6.89037745	          2.27333416	          0.98737078	         -0.00120734	        -13.72018213	         -2.64877780	         -6.23842506	        -12.90653211	          2.53874876	         39.93333212	         27.32341170	         -0.37555214	         -7.44547739	         -8.19760393	          2.27562632	          0.19585732	        -12.07497427	          0.85544579	          9.14053773	          0.01503177	          0.00999999	          0.00999999	          0.02424998	          0.00999999	          0.03887532	          0.20146265	          0.00999999	          0.12853993	          0.00999999	          0.00999999	          0.26265350	          0.19397078	          0.00999999	          0.01849480	          0.11024193	          0.02443088	          0.09933962	          0.22541957	          0.06196741	          0.05443726	          0.14359552	          0.08142820	          0.01163109	          0.00999999	          0.00999999	          0.00999999	          0.39912640	
          2.03387967	         -4.19425834	          1.18897741	         -6.82761320	          2.29345047	          0.98606297	         -0.00225502	        -13.77855980	         -3.10931415	         -6.72458873	        -14.70268161	          1.16770019	         41.48009660	         27.08569140	         -0.13528186	         -7.72118041	         -9.71431600	          1.69460435	          0.16639160	        -11.51092616	          0.28377081	          9.19023158	          0.05985245	          0.00999999	          0.00999999	          0.01985172	          0.01000000	          0.05202125	          0.16492304	          0.00999999	          0.10522644	          0.00999999	          0.00999999	          0.21501560	          0.15878998	          0.00999999	          0.02551685	          0.09024717	          0.01999981	          0.15615250	          0.23214591	          0.06460281	          0.04456388	          0.13022427	          0.06665943	          0.00999999	          0.09552079	          0.00999999	          0.00999999	          0.42519992	
          2.04717300	         -4.20504352	          1.37549106	         -6.74364782	          2.31322666	          0.98546136	         -0.00339519	        -13.48867697	         -3.62943135	         -7.22733431	        -17.07136637	         -0.34181223	         42.66757842	         26.87028292	          0.11860214	         -8.00673961	        -11.31007875	          1.42078901	          0.12717693	        -10.99887005	         -0.30202295	          9.19985651	          0.08257580	          0.00999999	          0.00999999	          0.01625118	          0.10241099	          0.06269143	          0.13501068	          0.00999999	          0.10161095	          0.00999999	          0.00999999	          0.17601787	          0.12998998	          0.00999999	          0.02402019	          0.07387890	          0.01637241	          0.18431381	          0.23337297	          0.06301976	          0.03648126	          0.16273007	          0.05456930	          0.00999999	          0.19312975	          0.00999999	          0.00999999	          0.42893604	
          2.06046634	         -4.20402432	          1.55991664	         -6.63767752	          2.33244580	          0.98570650	         -0.00459128	        -12.81271986	         -4.19495406	         -7.78061975	        -20.04600759	         -1.90767604	         43.09869915	         26.64706764	          0.37808140	         -8.26374128	        -12.92417398	          1.56084682	          0.09611234	        -10.56027870	         -0.88515169	          9.16740949	          0.09000057	          0.00999999	          0.00999999	          0.01330368	          0.17109327	          0.06405687	          0.11052357	          0.00999999	          0.08318161	          0.00999999	          0.00999999	          0.14409322	          0.10641349	          0.00999999	          0.02485127	          0.06047936	          0.01340292	          0.19197685	          0.25457619	          0.06546148	          0.02986459	          0.17236203	          0.04467198	          0.00999999	          0.23897492	          0.00999999	          0.00999999	          0.39237579	
          2.07375967	         -4.19296520	          1.71541062	         -6.50808436	          2.35104460	          0.98679474	         -0.00580097	        -11.75318785	         -4.79016256	         -8.40709588	        -23.62284772	         -3.44250124	         42.41757011	         26.35489979	          0.62559142	         -8.47131404	        -14.43190021	          2.06669974	          0.09453672	        -10.20061653	         -1.43773095	          9.09108477	          0.08425170	          0.00999999	          0.00999999	          0.01089077	          0.23522910	          0.06622441	          0.09047773	          0.00999999	          0.06809482	          0.00999999	          0.00999999	          0.11795880	          0.08711310	          0.00999999	          0.02034395	          0.04951012	          0.01097201	          0.18545555	          0.25158801	          0.06579788	          0.02444800	          0.18129058	          0.03656975	          0.00999999	          0.28279075	          0.00999999	          0.00999999	          0.33410738	
          2.08705300	         -4.17287462	          1.81930519	         -6.35139462	          2.36904346	          0.98864587	         -0.00698167	        -10.36087979	         -5.39781389	         -9.08631139	        -27.65277221	         -5.12069223	         40.74788597	         25.91425525	          0.85198914	         -8.60230546	        -15.66469935	          2.76575503	          0.18672450	         -9.91639870	         -1.93726336	          8.96640288	          0.06897083	          0.00999999	          0.00999999	          0.00999999	          0.27248003	          0.06121674	          0.07785423	          0.00999999	          0.05574435	          0.00999999	          0.00999999	          0.09656442	          0.07131325	          0.02140820	          0.01665414	          0.04053039	          0.00999999	          0.18288427	          0.25369899	          0.07010700	          0.02001383	          0.17195120	          0.02993703	          0.00999999	          0.28348852	          0.00999999	          0.00999999	          0.27878178	
